<svg xmlns="http://www.w3.org/2000/svg" width="52" height="52" viewBox="0 0 52 52">
    <g data-name="Group 130260">
        <path data-name="Rectangle 70588" style="fill:transparent"  d="M0 0h52v52H0z"/>
        <g transform="translate(2.031 1.53)" data-name="Group 130205">
            <path data-name="Path 144235" d="m114.376 331.458 9.142-6.53a2.317 2.317 0 0 1 3.233.537c.037.051.071.1.1.157a2.317 2.317 0 0 1-.646 3.083l-9.7 8.042a4.792 4.792 0 0 1-3.059 1.1H93.6v-9.588l3.9-3.254a3.2 3.2 0 0 1 2.046-.741h10.428a2 2 0 0 1 2 2 2 2 0 0 1-2 2h-5.194a1.6 1.6 0 0 0-1.6 1.6 1.6 1.6 0 0 0 1.6 1.6z" transform="translate(-84.838 -293.905)" style="fill:#fec9a3"/>
            <path data-name="Rectangle 70505" transform="translate(0 33.558)" style="fill:#4398d1" d="M0 0h8.764v13.583H0z"/>
            <circle data-name="Ellipse 1907" cx="1.598" cy="1.598" r="1.598" transform="translate(2.397 40.749)" style="fill:#e5e5e5"/>
            <path data-name="Path 144236" d="M8.533 273.067h46.342a4.794 4.794 0 0 1-4.794 4.794H13.327a4.794 4.794 0 0 1-4.794-4.794z" transform="translate(-7.734 -247.499)" style="fill:#d1d1d1"/>
            <path data-name="Path 144237" d="M82.617 71.974h-39.95v-.8A19.975 19.975 0 0 1 62.642 51.2a19.975 19.975 0 0 1 19.975 19.975z" transform="translate(-38.672 -46.406)" style="fill:#e5e5e5"/>
            <g data-name="Group 130197">
                <path data-name="Path 144238" d="m100.585 142.891-1.334-.879a17.716 17.716 0 0 1 1.537-2l1.194 1.061a16.2 16.2 0 0 0-1.397 1.818z" transform="translate(-89.958 -126.905)" style="fill:#fff"/>
                <path data-name="Path 144239" d="m128.659 82.732-1.094-1.164a17.5 17.5 0 0 1 12.026-4.768v1.6a15.913 15.913 0 0 0-10.932 4.332z" transform="translate(-115.621 -69.609)" style="fill:#fff"/>
            </g>
            <path data-name="Path 144240" d="M235.194 0H230.4v1.6h1.6v3.2h1.6V1.6h1.6z" transform="translate(-208.827)" style="fill:#d1d1d1"/>
            <path data-name="Path 144241" d="M243.65 273.067a52.307 52.307 0 0 1-14.1 4.794h20.85a4.794 4.794 0 0 0 4.794-4.794z" transform="translate(-208.054 -247.499)" style="fill:#c9c9c9"/>
            <path data-name="Path 144242" d="M186.341 123.969a19.916 19.916 0 0 0-6.267-14.521c-5.6 8-15.75 12.777-22.968 15.32h29.234z" transform="translate(-142.397 -99.2)" style="fill:#dedede"/>
            <g data-name="Group 130198">
                <path data-name="Path 144243" d="M403.859 328.1a2.2 2.2 0 0 0-.116-.24 2.317 2.317 0 0 0-3.178-.8 3.502 3.502 0 0 0-.157.1l-1.312.934z" transform="translate(-361.726 -296.143)" style="fill:#f7bb8f"/>
                <path data-name="Path 144244" d="M139.782 325.864a2 2 0 0 0-1.957-1.6H127.4a3.2 3.2 0 0 0-2.046.741l-1.028.857h15.46z" transform="translate(-112.681 -293.904)" style="fill:#f7bb8f"/>
            </g>
            <path data-name="Path 144245" d="M6.392 42.347a2.4 2.4 0 1 0-2.4 2.4 2.4 2.4 0 0 0 2.4-2.4zm-3.2 0a.8.8 0 1 1 .8.8.8.8 0 0 1-.796-.8z"/>
            <path data-name="Path 144246" d="M47.141 24.769h-2.4A20.8 20.8 0 0 0 24.769 4.015V1.6h1.6V0h-4.796v1.6h1.6v2.415A20.8 20.8 0 0 0 3.2 24.769H.8a.8.8 0 0 0-.8.8 5.6 5.6 0 0 0 5.593 5.593h5.757l-2.118 1.765a.782.782 0 0 0-.467-.168H0v1.6h7.965v11.983H0v1.6h8.764a.8.8 0 0 0 .8-.8v-2.4h19.045a5.6 5.6 0 0 0 3.568-1.287l9.655-8a3.132 3.132 0 0 0 .869-4.147c-.034-.057-.08-.1-.117-.16a5.592 5.592 0 0 0 5.356-5.578.8.8 0 0 0-.799-.801zM23.97 5.593a19.2 19.2 0 0 1 19.176 19.176H4.794A19.2 19.2 0 0 1 23.97 5.593zm16.89 28.593-9.7 8.041a4 4 0 0 1-2.552.919H9.563v-8.414l3.62-3.011a2.4 2.4 0 0 1 1.534-.559h10.427a1.2 1.2 0 1 1 0 2.4H19.95a2.4 2.4 0 0 0 0 4.794h9.588A.8.8 0 0 0 30 38.2l9.142-6.529a1.518 1.518 0 0 1 2.118.35l.069.1a1.547 1.547 0 0 1-.469 2.065zm-13.2-3.025h9.453l-7.83 5.593H19.95a.8.8 0 1 1 0-1.6h5.194a2.778 2.778 0 0 0 2.516-4zm14.687-1.6H5.593a4 4 0 0 1-3.915-3.2h44.584a4 4 0 0 1-3.915 3.202z"/>
            <path data-name="Path 144247" d="m9.292 15.106 1.334.879a16.248 16.248 0 0 1 1.4-1.82l-1.194-1.061a17.691 17.691 0 0 0-1.54 2.002z"/>
            <path data-name="Path 144248" d="M13.038 13.123A15.913 15.913 0 0 1 23.97 8.791v-1.6a17.5 17.5 0 0 0-12.026 4.768z"/>
        </g>
    </g>
</svg>
