<svg xmlns="http://www.w3.org/2000/svg" xmlns:xlink="http://www.w3.org/1999/xlink" width="30" height="30" viewBox="0 0 30 30">
  <defs>
    <style>
      .cls-1 {
        fill: url(#linear-gradient);
      }

      .cls-2 {
        fill: #fff;
      }
    </style>
    <linearGradient id="linear-gradient" x1="0.084" y1="0.916" x2="0.916" y2="0.084" gradientUnits="objectBoundingBox">
      <stop offset="0" stop-color="#ffd600"/>
      <stop offset="0.5" stop-color="#ff0100"/>
      <stop offset="1" stop-color="#d800b9"/>
    </linearGradient>
  </defs>
  <g id="Insta" transform="translate(-422 -70.5)">
    <g id="Insta-2" data-name="Insta" transform="translate(422 70.5)">
      <path id="Path_1600" data-name="Path 1600" class="cls-1" d="M30,15A15,15,0,1,0,15,30,15,15,0,0,0,30,15Z"/>
    </g>
    <path id="Path_1610" data-name="Path 1610" class="cls-2" d="M16.8,4.952a6.186,6.186,0,0,0-.392-2.045,4.13,4.13,0,0,0-.972-1.493A4.131,4.131,0,0,0,13.946.442,6.185,6.185,0,0,0,11.9.051C11,.01,10.715,0,8.426,0S5.851.01,4.952.051A6.187,6.187,0,0,0,2.907.442a4.13,4.13,0,0,0-1.493.972A4.131,4.131,0,0,0,.442,2.907,6.186,6.186,0,0,0,.051,4.952C.01,5.851,0,6.138,0,8.426S.01,11,.051,11.9a6.185,6.185,0,0,0,.392,2.045,4.129,4.129,0,0,0,.972,1.492,4.129,4.129,0,0,0,1.493.972,6.183,6.183,0,0,0,2.045.392c.9.041,1.186.051,3.474.051S11,16.843,11.9,16.8a6.184,6.184,0,0,0,2.045-.392,4.308,4.308,0,0,0,2.464-2.464A6.184,6.184,0,0,0,16.8,11.9c.041-.9.051-1.186.051-3.474S16.843,5.851,16.8,4.952Zm-1.517,6.879A4.662,4.662,0,0,1,15,13.4,2.79,2.79,0,0,1,13.4,15a4.662,4.662,0,0,1-1.565.29c-.888.041-1.155.049-3.4.049s-2.517-.008-3.405-.049A4.664,4.664,0,0,1,3.457,15a2.611,2.611,0,0,1-.969-.63,2.61,2.61,0,0,1-.63-.969,4.662,4.662,0,0,1-.29-1.565c-.041-.888-.049-1.155-.049-3.4s.009-2.517.049-3.405a4.666,4.666,0,0,1,.29-1.565,2.612,2.612,0,0,1,.63-.969,2.609,2.609,0,0,1,.969-.63,4.661,4.661,0,0,1,1.565-.29c.888-.041,1.155-.049,3.4-.049h0c2.25,0,2.517.009,3.405.049a4.663,4.663,0,0,1,1.565.29,2.613,2.613,0,0,1,.969.63,2.609,2.609,0,0,1,.63.969,4.658,4.658,0,0,1,.29,1.565c.041.888.049,1.155.049,3.4S15.326,10.943,15.285,11.831Zm0,0" transform="translate(428.546 77.074)"/>
    <path id="Path_1611" data-name="Path 1611" class="cls-2" d="M128.866,124.539a4.327,4.327,0,1,0,4.327,4.327A4.327,4.327,0,0,0,128.866,124.539Zm0,7.136a2.809,2.809,0,1,1,2.809-2.809A2.809,2.809,0,0,1,128.866,131.675Zm0,0" transform="translate(308.107 -43.366)"/>
    <path id="Path_1612" data-name="Path 1612" class="cls-2" d="M363.952,89.636a1.011,1.011,0,1,1-1.011-1.011A1.011,1.011,0,0,1,363.952,89.636Zm0,0" transform="translate(78.53 -8.634)"/>
  </g>
</svg>
