<svg id="In" xmlns="http://www.w3.org/2000/svg" width="30" height="30" viewBox="0 0 30 30">
  <defs>
    <style>
      .cls-1 {
        fill: #0f77b5;
      }

      .cls-2 {
        fill: #fff;
      }
    </style>
  </defs>
  <g id="Group_1142" data-name="Group 1142">
    <path id="Path_1608" data-name="Path 1608" class="cls-1" d="M30,15A15,15,0,1,0,15,30,15,15,0,0,0,30,15Z"/>
    <g id="Group_1141" data-name="Group 1141" transform="translate(5.649 6.05)">
      <path id="LinkedIn_1_" class="cls-2" d="M167.621,166.508v6.884h-3.994v-6.424c0-1.612-.579-2.716-2.024-2.716a2.176,2.176,0,0,0-2.048,1.463,2.688,2.688,0,0,0-.131.973v6.7H155.43s.054-10.878,0-12.006h3.994v1.7c-.006.012-.018.024-.024.036h.024v-.036a3.96,3.96,0,0,1,3.6-1.982C165.651,161.1,167.621,162.818,167.621,166.508ZM151.257,155.6a2.08,2.08,0,1,0-.054,4.149h.024a2.081,2.081,0,1,0,.03-4.149Zm-2.018,17.792h3.988V161.385h-3.988Z" transform="translate(-149 -155.6)"/>
    </g>
  </g>
</svg>
