<svg id="Youtube" xmlns="http://www.w3.org/2000/svg" width="30" height="30" viewBox="0 0 30 30">
  <defs>
    <style>
      .cls-1 {
        fill: #d42428;
      }

      .cls-2 {
        fill: #fff;
      }
    </style>
  </defs>
  <g id="Group_1149" data-name="Group 1149">
    <path id="Path_1603" data-name="Path 1603" class="cls-1" d="M30,15A15,15,0,1,0,15,30,15,15,0,0,0,30,15Z"/>
    <g id="Group_1139" data-name="Group 1139" transform="translate(6.181 6.639)">
      <path id="Path_1604" data-name="Path 1604" class="cls-2" d="M207.6,165.8h1.319l.167.681.143.5.119.49.119.513.09.43h.054l.09-.43.1-.513.131-.49.131-.5.185-.681h1.278l-1.355,4.072v2.89h-1.212v-2.89Z" transform="translate(-204.639 -165.8)"/>
      <path id="Path_1605" data-name="Path 1605" class="cls-2" d="M276.252,194.4c1.033,0,1.552.49,1.552,1.463v2.4c0,.973-.519,1.463-1.552,1.463s-1.552-.49-1.552-1.463v-2.4C274.7,194.89,275.219,194.4,276.252,194.4Zm0,.836c-.275,0-.418.167-.418.478v2.693c0,.3.155.478.418.478s.418-.179.418-.478v-2.693C276.67,195.4,276.509,195.236,276.252,195.236Z" transform="translate(-267.733 -192.692)"/>
      <path id="Path_1606" data-name="Path 1606" class="cls-2" d="M348.836,200.688l-.09-.448a1.655,1.655,0,0,1-1.069.519.934.934,0,0,1-.693-.293c-.143-.179-.185-.364-.185-.9V195.5h1.134v4.036c0,.263.09.388.3.388a.9.9,0,0,0,.507-.209V195.5h1.134v5.188Z" transform="translate(-335.528 -193.727)"/>
      <path id="Path_1607" data-name="Path 1607" class="cls-2" d="M161.057,298.2A3.055,3.055,0,0,0,158,301.257v2.663a3.055,3.055,0,0,0,3.057,3.057h11.457a3.055,3.055,0,0,0,3.057-3.057v-2.663a3.055,3.055,0,0,0-3.057-3.057Zm-1.415,1.176h3.218v.824h-1.081v5.5h-1.1v-5.5h-1.033Zm7.32,0h1.033v2.06a1.489,1.489,0,0,1,.985-.5.823.823,0,0,1,.615.269c.131.173.167.34.167.848v2.621c0,.5-.036.663-.167.836a.814.814,0,0,1-.627.275,1.428,1.428,0,0,1-.973-.513v.448h-1.033v-6.34Zm5.314,1.552c.854,0,1.385.448,1.385,1.176v1.385h-1.791v1.033c0,.34.107.484.382.484a.374.374,0,0,0,.3-.143c.06-.084.072-.191.072-.531v-.287h1.033v.173a2.506,2.506,0,0,1,.012.257c0,.836-.507,1.29-1.445,1.29a1.23,1.23,0,0,1-1.391-1.325v-2.191c.006-.89.478-1.319,1.439-1.319Zm-9.23.06h1.033v3.672c0,.239.084.352.275.352a.825.825,0,0,0,.466-.191v-3.833h1.033V305.7H164.9l-.084-.412a1.5,1.5,0,0,1-.973.472.839.839,0,0,1-.627-.263c-.131-.161-.167-.334-.167-.818l-.006-3.7Zm5.409.7a.826.826,0,0,0-.466.191v2.943a.826.826,0,0,0,.466.191c.191,0,.275-.113.275-.352v-2.621C168.729,301.794,168.645,301.687,168.454,301.687Zm3.8,0c-.239,0-.382.125-.382.34v.794h.758v-.794C172.633,301.812,172.49,301.687,172.251,301.687Z" transform="translate(-158 -290.295)"/>
    </g>
  </g>
</svg>
